<svg width="68" height="54" viewBox="0 0 68 54" fill="none" xmlns="http://www.w3.org/2000/svg">
<path fill-rule="evenodd" clip-rule="evenodd" d="M1.44666 1.5235C0.941706 2.12341 0.665389 2.88269 0.666661 3.66683V43.6668C0.666661 46.319 1.72023 48.8625 3.59559 50.7379C5.47096 52.6133 8.0145 53.6668 10.6667 53.6668H57.3333C59.9855 53.6668 62.529 52.6133 64.4044 50.7379C66.2798 48.8625 67.3333 46.319 67.3333 43.6668V3.70017C67.3365 3.20346 67.2293 2.71224 67.0195 2.26202C66.8097 1.8118 66.5024 1.41382 66.12 1.09683C65.5275 0.605949 64.7828 0.336128 64.0133 0.3335H3.99999C3.51322 0.332752 3.03222 0.438947 2.591 0.644577C2.14979 0.850208 1.75914 1.15025 1.44666 1.5235ZM7.33333 11.7135V43.6668C7.33333 44.5509 7.68452 45.3987 8.30964 46.0239C8.93476 46.649 9.78261 47.0002 10.6667 47.0002H57.3333C58.2174 47.0002 59.0652 46.649 59.6904 46.0239C60.3155 45.3987 60.6667 44.5509 60.6667 43.6668V11.7135L36.3567 36.0235C35.7316 36.6484 34.8839 36.9995 34 36.9995C33.1161 36.9995 32.2684 36.6484 31.6433 36.0235L7.33333 11.7135Z" fill="black"/>
</svg>
