<svg width="68" height="66" viewBox="0 0 68 66" fill="none" xmlns="http://www.w3.org/2000/svg">
<path d="M34 0.666504C29.6226 0.666504 25.2881 1.5287 21.2439 3.20385C17.1997 4.87901 13.5251 7.33432 10.4298 10.4296C4.17856 16.6808 0.666668 25.1593 0.666668 33.9998C0.666668 48.7332 10.2333 61.2332 23.4667 65.6665C25.1333 65.9332 25.6667 64.8998 25.6667 63.9998V58.3665C16.4333 60.3665 14.4667 53.8998 14.4667 53.8998C12.9333 50.0332 10.7667 48.9998 10.7667 48.9998C7.73334 46.9332 11 46.9998 11 46.9998C14.3333 47.2332 16.1 50.4332 16.1 50.4332C19 55.4998 23.9 53.9998 25.8 53.1998C26.1 51.0332 26.9667 49.5665 27.9 48.7332C20.5 47.8998 12.7333 45.0332 12.7333 32.3332C12.7333 28.6332 14 25.6665 16.1667 23.2998C15.8333 22.4665 14.6667 18.9998 16.5 14.4998C16.5 14.4998 19.3 13.5998 25.6667 17.8998C28.3 17.1665 31.1667 16.7998 34 16.7998C36.8333 16.7998 39.7 17.1665 42.3333 17.8998C48.7 13.5998 51.5 14.4998 51.5 14.4998C53.3333 18.9998 52.1667 22.4665 51.8333 23.2998C54 25.6665 55.2667 28.6332 55.2667 32.3332C55.2667 45.0665 47.4667 47.8665 40.0333 48.6998C41.2333 49.7332 42.3333 51.7665 42.3333 54.8665V63.9998C42.3333 64.8998 42.8667 65.9665 44.5667 65.6665C57.8 61.1998 67.3333 48.7332 67.3333 33.9998C67.3333 29.6224 66.4711 25.2879 64.796 21.2437C63.1208 17.1995 60.6655 13.5249 57.5702 10.4296C54.4749 7.33432 50.8003 4.87901 46.7561 3.20385C42.7119 1.5287 38.3774 0.666504 34 0.666504Z" fill="black"/>
</svg>
